# xmcd
#
# Track frame offsets: 
#        150
#        19050
#        33342
#        49100
#        54005
#        70788
#        90234
#        108471
#        127816
#        147461
#        164883
#        181302
#        197088
#        219170
#        235046
#        256705
#        276628
#        298369
#        326993
#
# Disc length: 4682 seconds
#
# Revision: 0
# Processed by: cddbd v1.5.2PL0 Copyright (c) Steve Scherf et al.
# Submitted via: ExactAudioCopy v1.0b1
#
DISCID=19124813
DTITLE=Blessed Child - Bringing Drama
DYEAR=2006
DGENRE=Rap
TTITLE0=Bringin drama
TTITLE1=Who got dar?
TTITLE2=Let's Get Loose
TTITLE3=dear citizens
TTITLE4=F**K You
TTITLE5=Realest killas in the game
TTITLE6=Higher
TTITLE7=Got them thangs
TTITLE8=Enemies
TTITLE9=Wrong n****s to f**k with
TTITLE10=I miss home
TTITLE11=Wildin Out
TTITLE12=Infantry soldier (Screwed)
TTITLE13=Pimp gee
TTITLE14=The Way We Ride
TTITLE15=I know you're home (Maurice)
TTITLE16=Rapkilla don't play
TTITLE17=Oh no n***a!?
TTITLE18=Oh no n***a!? (Video) (Data Track)
EXTD=
EXTT0=
EXTT1=
EXTT2=
EXTT3=
EXTT4=
EXTT5=
EXTT6=
EXTT7=
EXTT8=
EXTT9=
EXTT10=
EXTT11=
EXTT12=
EXTT13=
EXTT14=
EXTT15=
EXTT16=
EXTT17=
EXTT18=
PLAYORDER=
